<svg width="526" height="526" viewBox="0 0 526 526" fill="none" xmlns="http://www.w3.org/2000/svg">
<rect width="526" height="526" rx="160" fill="url(#paint0_linear)"/>
<path d="M439 302.111C439 375.014 360.201 419.444 263 419.444C165.799 419.444 87 375.014 87 302.111C87 229.208 165.799 155.444 263 155.444C360.201 155.444 439 229.208 439 302.111Z" fill="#C6E5B3"/>
<path d="M397.493 210.943C410.869 200.188 419.444 183.712 419.444 165.222C419.444 132.828 393.172 106.556 360.778 106.556C332.804 106.556 309.444 126.15 303.568 152.364C290.974 147.642 277.334 144.953 263 144.953C248.676 144.953 235.026 147.642 222.432 152.364C216.556 126.15 193.196 106.556 165.222 106.556C132.828 106.556 106.556 132.828 106.556 165.222C106.556 183.712 115.131 200.188 128.507 210.943C102.644 237.148 87 269.698 87 302.111C87 375.014 165.799 311.889 263 311.889C360.201 311.889 439 375.014 439 302.111C439 269.698 423.356 237.148 397.493 210.943Z" fill="#77B255"/>
<path d="M160.333 194.556C179.234 194.556 194.556 179.234 194.556 160.333C194.556 141.433 179.234 126.111 160.333 126.111C141.433 126.111 126.111 141.433 126.111 160.333C126.111 179.234 141.433 194.556 160.333 194.556Z" fill="white"/>
<path d="M160.333 175C168.434 175 175 168.434 175 160.333C175 152.233 168.434 145.667 160.333 145.667C152.233 145.667 145.667 152.233 145.667 160.333C145.667 168.434 152.233 175 160.333 175Z" fill="#292F33"/>
<path d="M365.667 194.556C384.567 194.556 399.889 179.234 399.889 160.333C399.889 141.433 384.567 126.111 365.667 126.111C346.766 126.111 331.444 141.433 331.444 160.333C331.444 179.234 346.766 194.556 365.667 194.556Z" fill="white"/>
<path d="M365.667 175C373.767 175 380.333 168.434 380.333 160.333C380.333 152.233 373.767 145.667 365.667 145.667C357.566 145.667 351 152.233 351 160.333C351 168.434 357.566 175 365.667 175Z" fill="#292F33"/>
<path d="M223.889 292.333C229.289 292.333 233.667 287.956 233.667 282.556C233.667 277.155 229.289 272.778 223.889 272.778C218.489 272.778 214.111 277.155 214.111 282.556C214.111 287.956 218.489 292.333 223.889 292.333Z" fill="#5C913B"/>
<path d="M302.111 292.333C307.511 292.333 311.889 287.956 311.889 282.556C311.889 277.155 307.511 272.778 302.111 272.778C296.711 272.778 292.333 277.155 292.333 282.556C292.333 287.956 296.711 292.333 302.111 292.333Z" fill="#5C913B"/>
<defs>
<linearGradient id="paint0_linear" x1="263" y1="0" x2="263" y2="526" gradientUnits="userSpaceOnUse">
<stop stop-color="#16A34A"/>
<stop offset="1" stop-color="#15803D"/>
</linearGradient>
</defs>
</svg>
